<svg width="30" height="32" viewBox="0 0 30 32" fill="none" xmlns="http://www.w3.org/2000/svg">
<path d="M29.2174 20.9231C29.2174 27.0315 24.4671 32 18.4412 32H15.8316C12.423 32 9.16711 30.58 6.84379 28.08L0.721942 21.4931C0.245918 20.9808 0 20.3085 0 19.7162C0 18.0115 1.42224 17.3008 2.40622 17.3008C3.06323 17.3008 3.7187 17.5635 4.20378 18.0838L6.25463 20.2908C6.38327 20.3615 6.54445 20.4154 6.69796 20.4154C7.01311 20.4154 7.3169 20.1714 7.3169 19.7988V4.30769C7.3169 3.28846 8.142 2.46154 9.0899 2.46154C10.1069 2.46154 10.8629 3.28846 10.8629 4.30769V16C11.0038 16.6769 11.5564 17.2308 12.2319 17.2308C12.9073 17.2308 13.3909 16.6798 13.3909 16.0692L13.4599 1.84615C13.4599 0.826923 14.285 0 15.2329 0C16.2499 0 17.0059 0.826923 17.0059 1.84615V16C17.1441 16.6769 17.6967 17.2308 18.3721 17.2308C19.0476 17.2308 19.5994 16.6797 19.5994 16.0692L19.6 4.36154C19.6 3.34231 20.4251 2.51538 21.373 2.51538C22.39 2.51538 23.146 3.34231 23.146 4.36154V16.0692C23.2844 16.6769 23.837 17.2308 24.5124 17.2308C25.1878 17.2308 25.6714 16.6798 25.6714 16.0692V8C25.6714 6.98077 26.4965 6.15385 27.4444 6.15385C28.4614 6.15385 29.2174 6.98077 29.2174 8V20.9231Z" fill="white"/>
</svg>
