<svg width="82" height="18" viewBox="0 0 82 18" fill="none" xmlns="http://www.w3.org/2000/svg">
<g clip-path="url(#clip0_624_1352)">
<path d="M13.1478 10.3154C13.1478 13.0642 11.0102 15.3 8.29855 15.3H7.12422C5.59035 15.3 4.1252 14.661 3.07971 13.536L0.324874 10.5719C0.110663 10.3414 0 10.0388 0 9.77229C0 9.00522 0.640008 8.68537 1.0828 8.68537C1.37845 8.68537 1.67342 8.80362 1.8917 9.03776L2.81458 10.0309C2.87247 10.0627 2.945 10.0869 3.01408 10.0869C3.1559 10.0869 3.2926 9.97715 3.2926 9.80947V2.83849C3.2926 2.37983 3.6639 2.00772 4.09045 2.00772C4.5481 2.00772 4.88831 2.37983 4.88831 2.83849V8.10002C4.95172 8.40464 5.2004 8.65387 5.50434 8.65387C5.80829 8.65387 6.02588 8.40592 6.02588 8.13118L6.05697 1.73079C6.05697 1.27214 6.42826 0.900024 6.85482 0.900024C7.31246 0.900024 7.65267 1.27214 7.65267 1.73079V8.10002C7.71484 8.40464 7.96352 8.65387 8.26746 8.65387C8.57141 8.65387 8.81974 8.40589 8.81974 8.13118L8.82002 2.86272C8.82002 2.40406 9.19131 2.03195 9.61787 2.03195C10.0755 2.03195 10.4157 2.40406 10.4157 2.86272V8.13118C10.478 8.40464 10.7266 8.65387 11.0306 8.65387C11.3345 8.65387 11.5521 8.40592 11.5521 8.13118V4.50002C11.5521 4.04137 11.9234 3.66926 12.35 3.66926C12.8076 3.66926 13.1478 4.04137 13.1478 4.50002V10.3154Z" fill="white"/>
</g>
<path d="M30.7421 1.80005V15.1001H28.555V5.61905L24.5042 12.307H24.2379L20.1871 5.60005V15.1001H18V1.80005H20.3582L24.3711 8.45005L28.4029 1.80005H30.7421Z" fill="white"/>
<path d="M34.8799 11.224C35.032 11.946 35.3744 12.5034 35.9069 12.896C36.452 13.276 37.124 13.4661 37.9228 13.4661C39.0005 13.4661 39.8182 13.0734 40.3761 12.288L42.0687 13.2761C41.1432 14.6567 39.7548 15.347 37.9038 15.347C36.3696 15.347 35.1208 14.8784 34.1572 13.941C33.2063 12.991 32.7308 11.794 32.7308 10.3501C32.7308 8.94405 33.2 7.75972 34.1382 6.79705C35.0637 5.83438 36.2682 5.35305 37.7516 5.35305C39.1336 5.35305 40.2747 5.84072 41.1749 6.81605C42.0751 7.79138 42.5251 8.97572 42.5251 10.369C42.5251 10.4704 42.5188 10.597 42.5061 10.749C42.4935 10.8884 42.4744 11.0467 42.4491 11.224H34.8799ZM40.4522 9.55205C40.3127 8.77938 39.9957 8.19672 39.5013 7.80405C39.0068 7.41138 38.4172 7.21505 37.7326 7.21505C36.9719 7.21505 36.3379 7.42405 35.8308 7.84205C35.3236 8.26005 35.0003 8.83005 34.8609 9.55205H40.4522Z" fill="white"/>
<path d="M52.7385 15.1001H50.2851L46.3864 10.711V15.1001H44.3325V1.80005H46.3864V9.79905L50.0759 5.60005H52.5863L48.4023 10.255L52.7385 15.1001Z" fill="white"/>
<path d="M59.2404 7.57605H56.8822V12.1361C56.8822 12.4401 56.9329 12.6744 57.0343 12.839C57.1357 13.0037 57.2815 13.1177 57.4717 13.1811C57.6746 13.2444 57.9218 13.2824 58.2134 13.295C58.505 13.295 58.8474 13.2824 59.2404 13.257V15.1001C57.6682 15.2901 56.5398 15.157 55.8552 14.701C55.1705 14.2324 54.8282 13.3774 54.8282 12.1361V7.57605H53.0785V5.60005H54.8282V3.54805L56.8822 2.94005V5.60005H59.2404V7.57605Z" fill="white"/>
<path d="M62.3298 11.224C62.4819 11.946 62.8243 12.5034 63.3568 12.896C63.902 13.276 64.5739 13.4661 65.3727 13.4661C66.4504 13.4661 67.2682 13.0734 67.826 12.288L69.5186 13.2761C68.5931 14.6567 67.2048 15.347 65.3537 15.347C63.8196 15.347 62.5707 14.8784 61.6071 13.941C60.6562 12.991 60.1808 11.794 60.1808 10.3501C60.1808 8.94405 60.6499 7.75972 61.5881 6.79705C62.5136 5.83438 63.7181 5.35305 65.2015 5.35305C66.5835 5.35305 67.7246 5.84072 68.6248 6.81605C69.525 7.79138 69.9751 8.97572 69.9751 10.369C69.9751 10.4704 69.9687 10.597 69.9561 10.749C69.9434 10.8884 69.9244 11.0467 69.899 11.224H62.3298ZM67.9021 9.55205C67.7626 8.77938 67.4457 8.19672 66.9512 7.80405C66.4567 7.41138 65.8672 7.21505 65.1825 7.21505C64.4218 7.21505 63.7879 7.42405 63.2807 7.84205C62.7736 8.26005 62.4503 8.83005 62.3108 9.55205H67.9021Z" fill="white"/>
<path d="M77.1645 5.35305C78.4577 5.35305 79.5735 5.84072 80.5117 6.81605C81.4372 7.77872 81.9 8.95672 81.9 10.3501C81.9 11.756 81.4372 12.9404 80.5117 13.903C79.5861 14.8657 78.4704 15.347 77.1645 15.347C75.7191 15.347 74.6097 14.815 73.8363 13.751V18H71.7824V5.60005H73.8363V6.96805C74.6097 5.89138 75.7191 5.35305 77.1645 5.35305ZM74.6921 12.535C75.2627 13.105 75.979 13.39 76.8412 13.39C77.7033 13.39 78.4197 13.105 78.9902 12.535C79.5608 11.9524 79.846 11.224 79.846 10.3501C79.846 9.47605 79.5608 8.75405 78.9902 8.18405C78.4197 7.60138 77.7033 7.31005 76.8412 7.31005C75.979 7.31005 75.2627 7.60138 74.6921 8.18405C74.1216 8.75405 73.8363 9.47605 73.8363 10.3501C73.8363 11.224 74.1216 11.9524 74.6921 12.535Z" fill="white"/>
<defs>
<clipPath id="clip0_624_1352">
<rect width="14.4" height="14.4" fill="white" transform="translate(0 0.900024)"/>
</clipPath>
</defs>
</svg>
